HIERARCHY
ROOT Hips
{
	OFFSET 0.000000 0.000000 0.000000
	CHANNELS 6 Xposition Yposition Zposition Xrotation Yrotation Zrotation
	JOINT LeftUpLeg_virtual
	{
		OFFSET 0.000000 0.000000 0.000000
		CHANNELS 3 Xrotation Yrotation Zrotation
		JOINT LeftUpLeg
		{
			OFFSET 10.205400 -3.823500 0.155100
			CHANNELS 3 Xrotation Yrotation Zrotation
			JOINT LeftLeg
			{
				OFFSET 0.708757 -12.982077 0.567790
				CHANNELS 3 Xrotation Yrotation Zrotation
				JOINT LeftFoot
				{
					OFFSET -0.708756 -10.717838 -2.184338
					CHANNELS 3 Xrotation Yrotation Zrotation
					JOINT LeftToeBase
					{
						OFFSET 0.108149 -7.191104 7.560241
						CHANNELS 3 Xrotation Yrotation Zrotation
						JOINT LeftToe_End
						{
							OFFSET 0.070230 0.081724 4.490308
							CHANNELS 3 Xrotation Yrotation Zrotation
							End Site
							{
								OFFSET 0 0 0
							}
						}
					}
				}
			}
		}
	}
	JOINT RightUpLeg_virtual
	{
		OFFSET 0.000000 0.000000 0.000000
		CHANNELS 3 Xrotation Yrotation Zrotation
		JOINT RightUpLeg
		{
			OFFSET -10.205400 -3.823500 0.005500
			CHANNELS 3 Xrotation Yrotation Zrotation
			JOINT RightLeg
			{
				OFFSET -0.708756 -12.982134 0.610632
				CHANNELS 3 Xrotation Yrotation Zrotation
				JOINT RightFoot
				{
					OFFSET 0.708754 -10.717769 -1.945823
					CHANNELS 3 Xrotation Yrotation Zrotation
					JOINT RightToeBase
					{
						OFFSET -0.108140 -7.191069 7.372968
						CHANNELS 3 Xrotation Yrotation Zrotation
						JOINT RightToe_End
						{
							OFFSET -0.070227 0.081735 4.479403
							CHANNELS 3 Xrotation Yrotation Zrotation
							End Site
							{
								OFFSET 0 0 0
							}
						}
					}
				}
			}
		}
	}
	JOINT Spine_virtual
	{
		OFFSET 0.000000 0.000000 0.000000
		CHANNELS 3 Xrotation Yrotation Zrotation
		JOINT Spine
		{
			OFFSET 0.000000 6.876099 0.125700
			CHANNELS 3 Xrotation Yrotation Zrotation
			JOINT Spine1
			{
				OFFSET 0.000000 5.730043 0.104720
				CHANNELS 3 Xrotation Yrotation Zrotation
				JOINT Spine1_split
				{
					OFFSET 0.000000 5.730043 0.104720
					CHANNELS 3 Xrotation Yrotation Zrotation
					JOINT Spine2
					{
						OFFSET 0.000000 5.730043 0.104720
						CHANNELS 3 Xrotation Yrotation Zrotation
						JOINT Neck_virtual
						{
							OFFSET 0.000000 0.000000 0.000000
							CHANNELS 3 Xrotation Yrotation Zrotation
							JOINT Neck
							{
								OFFSET 0.000000 10.314075 0.188496
								CHANNELS 3 Xrotation Yrotation Zrotation
								JOINT Head
								{
									OFFSET 0.000000 7.643700 -2.377400
									CHANNELS 3 Xrotation Yrotation Zrotation
									JOINT HeadTop_End
									{
										OFFSET 0.000000 43.788605 -13.619600
										CHANNELS 3 Xrotation Yrotation Zrotation
										End Site
										{
											OFFSET 0 0 0
										}
									}
								}
							}
						}
						JOINT LeftShoulder_virtual
						{
							OFFSET 0.000000 0.000000 0.000000
							CHANNELS 3 Xrotation Yrotation Zrotation
							JOINT LeftShoulder
							{
								OFFSET 2.196100 4.412489 0.087492
								CHANNELS 3 Xrotation Yrotation Zrotation
								JOINT LeftShoulder_split
								{
									OFFSET 2.196100 4.412489 0.087492
									CHANNELS 3 Xrotation Yrotation Zrotation
									JOINT LeftArm
									{
										OFFSET 8.771219 -2.981674 -0.026999
										CHANNELS 3 Xrotation Yrotation Zrotation
										JOINT LeftForeArm
										{
											OFFSET 8.512804 0.000000 -0.000000
											CHANNELS 3 Xrotation Yrotation Zrotation
											JOINT LeftHand
											{
												OFFSET 18.484802 0.000000 -0.000000
												CHANNELS 3 Xrotation Yrotation Zrotation
												End Site
												{
													OFFSET 0 0 0
												}
											}
										}
									}
								}
							}
						}
						JOINT RightShoulder_virtual
						{
							OFFSET 0.000000 0.000000 0.000000
							CHANNELS 3 Xrotation Yrotation Zrotation
							JOINT RightShoulder
							{
								OFFSET -2.196100 4.412496 0.070690
								CHANNELS 3 Xrotation Yrotation Zrotation
								JOINT RightShoulder_split
								{
									OFFSET -2.196100 4.412496 0.070690
									CHANNELS 3 Xrotation Yrotation Zrotation
									JOINT RightArm
									{
										OFFSET -8.771282 -2.981682 -0.094208
										CHANNELS 3 Xrotation Yrotation Zrotation
										JOINT RightForeArm
										{
											OFFSET -8.494598 0.000000 0.000000
											CHANNELS 3 Xrotation Yrotation Zrotation
											JOINT RightHand
											{
												OFFSET -18.483803 0.000000 0.000001
												CHANNELS 3 Xrotation Yrotation Zrotation
												End Site
												{
													OFFSET 0 0 0
												}
											}
										}
									}
								}
							}
						}
					}
				}
			}
		}
	}
}
MOTION
Frames: 11
Frame Time: 0.03333333
-0.261670 30.490093 2.893827 0.000000 0.000000 0.000000 -15.289534 -1.264567 -5.037011 -28.258757 23.022314 9.728266 45.639307 -9.851173 11.803296 -7.389492 -6.178942 -0.359717 -2.362778 0.216751 -0.730361 0.000000 0.000000 0.000000 -14.793505 -0.486394 -5.071728 -10.891369 -30.421874 5.281610 36.686992 12.168536 -14.127822 -6.218954 8.090937 -5.354923 -1.907036 -0.016468 -0.837976 0.000000 0.000000 0.000000 -14.988990 -1.923145 -5.738530 5.290817 -1.568852 2.810956 13.417937 -0.861420 -0.181349 0.473524 2.419939 -0.404991 0.000000 0.000000 0.000000 11.898362 -0.329197 -0.350899 11.180743 1.033022 1.391712 -1.588875 1.537899 3.387979 0.000000 0.000000 0.000000 12.277992 -0.164688 -0.476834 0.781714 7.260629 -10.093169 -2.103698 -2.507477 -0.547351 82.400174 -69.408690 11.177915 0.081419 -25.152469 1.235169 0.000000 0.000000 0.000000 12.411697 -0.368226 -0.486407 1.557894 -1.288471 10.852739 5.923768 0.374709 -2.329756 6.151202 35.259554 58.548566 -0.943225 27.702822 0.462034 0.000000 0.000000 0.000000 
-0.249756 30.492466 2.896276 0.000000 0.000000 0.000000 -15.298493 -1.317321 -5.005495 -28.237686 23.137706 9.703763 45.631469 -9.840391 11.794371 -7.401267 -6.195281 -0.330740 -2.357772 0.214639 -0.718948 0.000000 0.000000 0.000000 -14.803825 -0.539031 -5.039136 -10.941090 -30.304597 5.269838 36.692207 12.136088 -14.166537 -6.218419 8.052662 -5.341095 -1.848003 -0.026891 -0.821752 0.000000 0.000000 0.000000 -14.991913 -1.972853 -5.705616 5.287574 -1.557516 2.798412 13.414972 -0.845474 -0.178567 0.470122 2.409159 -0.400940 0.000000 0.000000 0.000000 11.895018 -0.314382 -0.350035 11.203761 1.034445 1.361604 -1.611632 1.544240 3.390162 0.000000 0.000000 0.000000 12.274390 -0.152586 -0.472881 0.781427 7.271637 -10.145870 -2.107305 -2.472852 -0.554956 82.248530 -69.325266 11.109031 0.081483 -25.231827 1.232393 0.000000 0.000000 0.000000 12.402428 -0.353981 -0.481552 1.556114 -1.285466 10.832800 5.901569 0.376062 -2.329708 6.152498 35.268915 58.517823 -0.948221 27.662141 0.466060 0.000000 0.000000 0.000000 
-0.240290 30.493212 2.899277 0.000000 0.000000 0.000000 -15.303565 -1.362533 -4.969092 -28.214031 23.248231 9.674236 45.624226 -9.828012 11.787065 -7.424078 -6.211072 -0.288569 -2.350123 0.212516 -0.712696 0.000000 0.000000 0.000000 -14.812484 -0.581587 -5.002218 -11.011670 -30.192346 5.240751 36.728659 12.110531 -14.211315 -6.214550 8.035527 -5.322890 -1.797278 -0.027006 -0.806194 0.000000 0.000000 0.000000 -14.993577 -2.011113 -5.669537 5.281743 -1.550786 2.777980 13.413025 -0.833869 -0.176412 0.471217 2.400014 -0.397767 0.000000 0.000000 0.000000 11.894259 -0.303452 -0.349251 11.236237 1.035608 1.332199 -1.634996 1.534837 3.421029 0.000000 0.000000 0.000000 12.274165 -0.144689 -0.469172 0.781659 7.279507 -10.192242 -2.105312 -2.445864 -0.562733 81.962734 -69.229814 10.913449 0.083324 -25.335731 1.229290 0.000000 0.000000 0.000000 12.394960 -0.344075 -0.477025 1.555649 -1.272970 10.837807 5.883282 0.389319 -2.335499 6.194796 35.266432 58.437719 -0.948796 27.668024 0.469696 0.000000 0.000000 0.000000 
-0.234429 30.491257 2.903175 0.000000 0.000000 0.000000 -15.305544 -1.394898 -4.929928 -28.194184 23.340495 9.643086 45.628556 -9.820565 11.785898 -7.453701 -6.228123 -0.243939 -2.344258 0.210759 -0.712910 0.000000 0.000000 0.000000 -14.819617 -0.608493 -4.963731 -11.098937 -30.097693 5.192183 36.802883 12.097021 -14.259811 -6.216214 8.046637 -5.298718 -1.757155 -0.017018 -0.794495 0.000000 0.000000 0.000000 -14.994413 -2.033475 -5.631925 5.272789 -1.548636 2.750503 13.410854 -0.827786 -0.175030 0.471806 2.393369 -0.396230 0.000000 0.000000 0.000000 11.893763 -0.297746 -0.348444 11.280617 1.035988 1.308929 -1.655323 1.508276 3.483560 0.000000 0.000000 0.000000 12.275661 -0.141859 -0.465843 0.782760 7.285379 -10.226858 -2.096234 -2.431466 -0.567604 81.588126 -69.129349 10.623858 0.087045 -25.458022 1.224734 0.000000 0.000000 0.000000 12.388828 -0.339402 -0.472931 1.555942 -1.252997 10.865940 5.871940 0.415719 -2.350405 6.273175 35.251877 58.326407 -0.944835 27.716976 0.471960 0.000000 0.000000 0.000000 
-0.232627 30.487316 2.907970 0.000000 0.000000 0.000000 -15.303906 -1.408381 -4.891149 -28.183343 23.403449 9.612732 45.645792 -9.821535 11.792394 -7.483629 -6.246400 -0.208582 -2.339928 0.209694 -0.719562 0.000000 0.000000 0.000000 -14.822667 -0.619680 -4.926308 -11.191099 -30.026287 5.127306 36.906780 12.094147 -14.305795 -6.228315 8.082871 -5.268402 -1.729766 0.000300 -0.787113 0.000000 0.000000 0.000000 -14.993674 -2.040867 -5.596547 5.261500 -1.549545 2.718383 13.407332 -0.826830 -0.174299 0.474452 2.389832 -0.395445 0.000000 0.000000 0.000000 11.891269 -0.297080 -0.347403 11.337156 1.036132 1.296090 -1.670135 1.468638 3.574385 0.000000 0.000000 0.000000 12.275838 -0.143492 -0.462965 0.784593 7.289217 -10.247168 -2.079033 -2.430437 -0.570123 81.174128 -69.031827 10.280188 0.091757 -25.591290 1.218751 0.000000 0.000000 0.000000 12.382248 -0.339888 -0.469366 1.556589 -1.227586 10.915645 5.869472 0.450205 -2.372537 6.378101 35.224225 58.198410 -0.936496 27.797888 0.472976 0.000000 0.000000 0.000000 
-0.234266 30.482565 2.912245 0.000000 0.000000 0.000000 -15.297812 -1.399109 -4.855595 -28.182641 23.432340 9.585598 45.667922 -9.830910 11.804795 -7.507017 -6.262907 -0.186721 -2.333443 0.209280 -0.731962 0.000000 0.000000 0.000000 -14.820520 -0.612036 -4.892286 -11.269781 -29.976621 5.060199 37.016152 12.098612 -14.345655 -6.250266 8.133941 -5.237803 -1.715080 0.021260 -0.784356 0.000000 0.000000 0.000000 -14.989663 -2.036558 -5.566271 5.248637 -1.551652 2.685559 13.400339 -0.829739 -0.173967 0.476864 2.385603 -0.393555 0.000000 0.000000 0.000000 11.884610 -0.299970 -0.345884 11.404264 1.036386 1.294741 -1.677671 1.419219 3.685764 0.000000 0.000000 0.000000 12.271410 -0.147884 -0.460372 0.787929 7.292316 -10.254510 -2.057458 -2.444077 -0.570438 80.764712 -68.943417 9.926410 0.096738 -25.725978 1.211209 0.000000 0.000000 0.000000 12.373189 -0.344069 -0.466022 1.557154 -1.200494 10.985114 5.876328 0.484116 -2.396613 6.497463 35.179600 58.066116 -0.926099 27.898232 0.473146 0.000000 0.000000 0.000000 
-0.237979 30.478498 2.915867 0.000000 0.000000 0.000000 -15.286677 -1.372567 -4.827089 -28.188536 23.429484 9.560620 45.681405 -9.843264 11.818490 -7.521375 -6.272551 -0.177803 -2.324493 0.209367 -0.747535 0.000000 0.000000 0.000000 -14.811205 -0.592399 -4.863934 -11.323047 -29.941876 5.006095 37.101953 12.104611 -14.374773 -6.283122 8.183584 -5.214686 -1.709898 0.041518 -0.785499 0.000000 0.000000 0.000000 -14.981289 -2.021875 -5.543394 5.235338 -1.552422 2.656764 13.388396 -0.833671 -0.173562 0.475011 2.379588 -0.395106 0.000000 0.000000 0.000000 11.872680 -0.303936 -0.344222 11.478719 1.037770 1.303559 -1.677294 1.365052 3.805636 0.000000 0.000000 0.000000 12.260503 -0.152316 -0.457994 0.792980 7.297148 -10.254557 -2.040579 -2.460432 -0.574352 80.387331 -68.866038 9.592212 0.100465 -25.854325 1.202976 0.000000 0.000000 0.000000 12.359534 -0.349256 -0.462943 1.557260 -1.174418 11.070690 5.889153 0.515107 -2.416610 6.624361 35.118347 57.934914 -0.913931 28.005043 0.472692 0.000000 0.000000 0.000000 
-0.242723 30.476320 2.917036 0.000000 0.000000 0.000000 -15.270476 -1.339864 -4.807632 -28.194278 23.403814 9.537898 45.676183 -9.852720 11.829980 -7.526636 -6.271831 -0.174968 -2.313583 0.209435 -0.763468 0.000000 0.000000 0.000000 -14.796174 -0.565481 -4.841803 -11.344108 -29.915979 4.974930 37.148501 12.106760 -14.390177 -6.316550 8.217870 -5.203138 -1.711614 0.057116 -0.789270 0.000000 0.000000 0.000000 -14.966464 -2.001450 -5.528669 5.222395 -1.549928 2.635797 13.370852 -0.835767 -0.172809 0.475125 2.370901 -0.398163 0.000000 0.000000 0.000000 11.855115 -0.306459 -0.342160 11.555971 1.040357 1.319579 -1.668349 1.309904 3.921724 0.000000 0.000000 0.000000 12.241692 -0.154435 -0.455881 0.800373 7.305781 -10.256174 -2.025762 -2.479547 -0.581052 80.056504 -68.798720 9.299018 0.102176 -25.972373 1.195286 0.000000 0.000000 0.000000 12.340102 -0.352770 -0.460087 1.556882 -1.152330 11.167283 5.907401 0.539628 -2.432420 6.750505 35.044488 57.805749 -0.901848 28.108740 0.472544 0.000000 0.000000 0.000000 
-0.246961 30.476524 2.916395 0.000000 0.000000 0.000000 -15.252639 -1.313408 -4.796371 -28.193633 23.367366 9.517118 45.651413 -9.857300 11.837948 -7.520518 -6.260371 -0.175522 -2.303541 0.208851 -0.776172 0.000000 0.000000 0.000000 -14.779006 -0.542088 -4.826522 -11.340632 -29.890786 4.972966 37.151701 12.103344 -14.393864 -6.336019 8.225958 -5.200399 -1.721780 0.064377 -0.796364 0.000000 0.000000 0.000000 -14.948532 -1.978977 -5.520225 5.211515 -1.543379 2.625381 13.346768 -0.833563 -0.171000 0.470227 2.360873 -0.400997 0.000000 0.000000 0.000000 11.832330 -0.305541 -0.339566 11.631583 1.042509 1.338317 -1.652153 1.255612 4.023386 0.000000 0.000000 0.000000 12.215635 -0.152519 -0.453290 0.810202 7.320609 -10.269286 -2.020456 -2.491031 -0.592547 79.779273 -68.735820 9.056547 0.101784 -26.076925 1.188654 0.000000 0.000000 0.000000 12.314653 -0.352716 -0.456877 1.556399 -1.136445 11.266078 5.927177 0.560517 -2.443071 6.870804 34.964514 57.682669 -0.890211 28.198556 0.472061 0.000000 0.000000 0.000000 
-0.249776 30.479601 2.914410 0.000000 0.000000 0.000000 -15.237098 -1.301366 -4.792645 -28.184067 23.331301 9.498858 45.613089 -9.858864 11.842173 -7.500867 -6.242042 -0.182868 -2.300469 0.207274 -0.781962 0.000000 0.000000 0.000000 -14.761774 -0.529601 -4.817453 -11.324382 -29.862021 4.994777 37.126757 12.092901 -14.387131 -6.327563 8.206027 -5.199166 -1.738047 0.061744 -0.804324 0.000000 0.000000 0.000000 -14.930373 -1.959740 -5.516240 5.203128 -1.533401 2.625882 13.317092 -0.826054 -0.167200 0.470380 2.352011 -0.407106 0.000000 0.000000 0.000000 11.804640 -0.301134 -0.335620 11.701048 1.043646 1.355885 -1.632007 1.204694 4.104084 0.000000 0.000000 0.000000 12.183409 -0.146723 -0.449680 0.822174 7.342429 -10.300634 -2.021316 -2.498171 -0.607058 79.551179 -68.674656 8.861011 0.099129 -26.167469 1.184028 0.000000 0.000000 0.000000 12.283963 -0.348661 -0.452773 1.556260 -1.126844 11.358231 5.944603 0.574613 -2.450758 6.985377 34.888446 57.565674 -0.879653 28.264631 0.471414 0.000000 0.000000 0.000000 
-0.250983 30.484713 2.911095 0.000000 0.000000 0.000000 -15.225663 -1.304108 -4.793610 -28.170103 23.306154 9.485694 45.572590 -9.859411 11.843183 -7.467883 -6.220708 -0.198912 -2.303029 0.204975 -0.780819 0.000000 0.000000 0.000000 -14.748991 -0.528455 -4.813532 -11.305041 -29.829417 5.033879 37.082972 12.077194 -14.375415 -6.289670 8.166261 -5.198908 -1.753693 0.049002 -0.809319 0.000000 0.000000 0.000000 -14.914968 -1.947404 -5.514716 5.197785 -1.521872 2.635686 13.282875 -0.814400 -0.160494 0.470216 2.342488 -0.408231 0.000000 0.000000 0.000000 11.774187 -0.293965 -0.328911 11.763699 1.042561 1.368791 -1.612431 1.157781 4.161312 0.000000 0.000000 0.000000 12.146633 -0.138230 -0.443665 0.835650 7.370692 -10.353230 -2.031011 -2.495357 -0.621393 79.366566 -68.614769 8.707113 0.094415 -26.241455 1.180175 0.000000 0.000000 0.000000 12.249389 -0.341675 -0.446497 1.556740 -1.123330 11.434047 5.959651 0.580256 -2.456117 7.087992 34.825837 57.460517 -0.871699 28.299789 0.469987 0.000000 0.000000 0.000000 
